<mxfile host="Electron" modified="2024-10-02T14:05:27.880Z" agent="Mozilla/5.0 (Windows NT 10.0; Win64; x64) AppleWebKit/537.36 (KHTML, like Gecko) draw.io/24.1.0 Chrome/120.0.6099.109 Electron/28.1.0 Safari/537.36" etag="JqgihKWHDvxqAFQIQ4kt" version="24.1.0" type="device">
  <diagram name="PÃ¡gina-1" id="HnM5bIwWVijFqjH4xQIT">
    <mxGraphModel dx="372" dy="439" grid="1" gridSize="10" guides="1" tooltips="1" connect="1" arrows="1" fold="1" page="1" pageScale="1" pageWidth="827" pageHeight="1169" math="0" shadow="0">
      <root>
        <mxCell id="0" />
        <mxCell id="1" parent="0" />
        <mxCell id="9hvnd5XY3FECfgj-unJh-1" value="&amp;lt;&amp;lt;component&amp;gt;&amp;gt;&lt;div&gt;&amp;lt;&amp;lt;C4 System&amp;gt;&amp;gt;&lt;br&gt;&lt;b&gt;Hospital&lt;/b&gt;&lt;/div&gt;" style="html=1;dropTarget=0;whiteSpace=wrap;" vertex="1" parent="1">
          <mxGeometry x="220" y="280" width="180" height="90" as="geometry" />
        </mxCell>
        <mxCell id="9hvnd5XY3FECfgj-unJh-2" value="" style="shape=module;jettyWidth=8;jettyHeight=4;" vertex="1" parent="9hvnd5XY3FECfgj-unJh-1">
          <mxGeometry x="1" width="20" height="20" relative="1" as="geometry">
            <mxPoint x="-27" y="7" as="offset" />
          </mxGeometry>
        </mxCell>
        <mxCell id="9hvnd5XY3FECfgj-unJh-3" value="" style="shape=umlLifeline;perimeter=lifelinePerimeter;whiteSpace=wrap;html=1;container=1;dropTarget=0;collapsible=0;recursiveResize=0;outlineConnect=0;portConstraint=eastwest;newEdgeStyle={&quot;curved&quot;:0,&quot;rounded&quot;:0};participant=umlEntity;" vertex="1" parent="1">
          <mxGeometry x="240" y="200" width="40" height="80" as="geometry" />
        </mxCell>
        <mxCell id="9hvnd5XY3FECfgj-unJh-4" value="API" style="text;html=1;align=center;verticalAlign=middle;resizable=0;points=[];autosize=1;strokeColor=none;fillColor=none;" vertex="1" parent="1">
          <mxGeometry x="240" y="230" width="40" height="30" as="geometry" />
        </mxCell>
        <mxCell id="9hvnd5XY3FECfgj-unJh-5" value="" style="verticalLabelPosition=bottom;verticalAlign=top;html=1;shape=mxgraph.basic.rect;fillColor2=none;strokeWidth=1;size=20;indent=5;" vertex="1" parent="1">
          <mxGeometry x="250" y="270" width="20" height="20" as="geometry" />
        </mxCell>
      </root>
    </mxGraphModel>
  </diagram>
</mxfile>
